<?xml version="1.0" encoding="UTF-8"?>
<svg width="40px" height="40px" viewBox="0 0 40 40" version="1.1" xmlns="http://www.w3.org/2000/svg" xmlns:xlink="http://www.w3.org/1999/xlink">
    <!-- Generator: Sketch 46.2 (44496) - http://www.bohemiancoding.com/sketch -->
    <title>Fill 183</title>
    <desc>Created with Sketch.</desc>
    <defs></defs>
    <g id="Design" stroke="none" stroke-width="1" fill="none" fill-rule="evenodd">
        <g id="v0_main" transform="translate(-1320.000000, -40.000000)" fill="#FFC107">
            <g id="icons_social" transform="translate(1033.000000, 40.000000)">
                <g id="fb" transform="translate(287.000000, 0.000000)">
                    <path d="M25.19375,13.32 L23.31125,13.32125 C21.835,13.32125 21.54875,14.0225 21.54875,15.05125 L21.54875,17.32125 L25.07,17.32125 L24.61125,20.8775 L21.54875,20.8775 L21.54875,30 L17.8775,30 L17.8775,20.8775 L14.8075,20.8775 L14.8075,17.32125 L17.8775,17.32125 L17.8775,14.7 C17.8775,11.65625 19.73625,10 22.45,10 C23.75,10 24.8675,10.09625 25.19375,10.14 L25.19375,13.32 Z M20,0 C8.955,0 0,8.95375 0,20 C0,31.045 8.955,40 20,40 C31.04625,40 40,31.045 40,20 C40,8.95375 31.04625,0 20,0 L20,0 Z" id="Fill-183"></path>
                </g>
            </g>
        </g>
    </g>
</svg>