<?xml version="1.0" encoding="UTF-8"?>
<svg width="166px" height="48px" viewBox="0 0 166 48" version="1.1" xmlns="http://www.w3.org/2000/svg" xmlns:xlink="http://www.w3.org/1999/xlink">
    <!-- Generator: Sketch 46.2 (44496) - http://www.bohemiancoding.com/sketch -->
    <title>Group 5</title>
    <desc>Created with Sketch.</desc>
    <defs></defs>
    <g id="Design" stroke="none" stroke-width="1" fill="none" fill-rule="evenodd">
        <g id="v0_main" transform="translate(-80.000000, -36.000000)" fill="#FFC107">
            <g id="Group-5" transform="translate(80.000000, 36.000000)">
                <g id="logo_bee-copy">
                    <g id="logo_bee" transform="translate(84.600000, 6.000000)">
                        <g id="bee">
                            <path d="M21.3527022,27.6878627 C22.0731997,26.3039029 22.4341669,24.7402307 22.4341669,23.0006019 C22.4341669,21.2941998 22.0651526,19.7481521 21.3282737,18.3621698 C20.5905325,16.9770544 19.5817785,15.8970457 18.3,15.1247442 C17.0185089,14.350998 15.5602702,13.9647028 13.9258589,13.9647028 C12.2920223,13.9647028 10.8254493,14.350998 9.52843882,15.1247442 C8.2305662,15.8970457 7.21290301,16.9770544 6.47573665,18.3621698 C5.73799551,19.7481521 5.37013081,21.2941998 5.37013081,23.0006019 C5.37013081,24.7731683 5.73799551,26.3440638 6.47573665,27.7124214 C7.21290301,29.0819348 8.2305662,30.1526979 9.52843882,30.926444 C10.8254493,31.6990345 12.2920223,32.0853297 13.9258589,32.0853297 C15.5602702,32.0853297 17.0265559,31.6990345 18.3235663,30.926444 C19.6217263,30.1526979 20.6310551,29.0738449 21.3527022,27.6878627 Z M24.5621531,16.3809982 C25.5870012,18.3465678 26.1,20.601931 26.1,23.1456432 C26.1,25.6587292 25.5953356,27.8901115 24.5857195,29.8380565 C23.5769655,31.7883129 22.1500529,33.3017119 20.307568,34.3814316 C18.4650832,35.4602846 16.3587705,36 13.9877676,36 C11.8406448,36 9.94987777,35.5486962 8.31604123,34.6466665 C6.68162989,33.7455036 5.39898916,32.4563118 4.47013081,30.7814027 L4.47013081,35.8549587 L0,35.8549587 L0,0 L4.47013081,0 L4.47013081,15.366287 C5.39898916,13.6913779 6.67358285,12.403053 8.29132532,11.5010233 C9.90906779,10.5989936 11.7762685,10.1476898 13.8917779,10.1476898 C16.2627808,10.1476898 18.3771406,10.6954951 20.2360069,11.7908169 C22.094011,12.8858498 23.5361555,14.4165844 24.5621531,16.3809982 Z" id="Fill-1"></path>
                            <path d="M49.8,21.3 C49.6720028,18.9780204 48.899984,17.1469951 47.4862497,15.8083706 C46.0713622,14.4700355 44.2079082,13.8 41.8930047,13.8 C39.6429647,13.8 37.7708622,14.4781361 36.2764089,15.8320938 C34.7816674,17.1869195 33.8900116,19.0098442 33.6,21.3 L49.8,21.3 Z M50.6788669,13.6952848 C52.6924778,16.0271086 53.7,19.2663455 53.7,23.4135722 C53.7,24.0565754 53.6836572,24.5386837 53.6521183,24.8604736 L33.6074721,24.8604736 C33.9589867,27.1429909 34.9105992,28.9586821 36.4611627,30.3089889 C38.0108661,31.659584 39.9215457,32.3351699 42.1909078,32.3351699 C43.6938764,32.3351699 45.0927668,32.0623982 46.3875791,31.5148362 C47.6815313,30.9684276 48.808901,30.1974004 49.7673947,29.1997362 L52.2133743,31.7558903 C50.9664437,33.1064855 49.4634751,34.1511495 47.7059022,34.890459 C45.9471824,35.6306336 43.9966491,36 41.8554494,36 C39.3618748,36 37.1481358,35.461665 35.2142321,34.3847067 C33.2788949,33.3071717 31.7773599,31.7887614 30.7064733,29.8274573 C29.6350132,27.86673 29.1,25.6315008 29.1,23.1237882 C29.1,20.6166523 29.6350132,18.3903618 30.7064733,16.4443399 C31.7773599,14.5003364 33.2720137,12.9724108 35.1895745,11.8631581 C37.1085689,10.7536171 39.2973636,10.2 41.759686,10.2 C45.6922913,10.2 48.665256,11.3649027 50.6788669,13.6952848 L50.6788669,13.6952848 Z" id="Fill-4"></path>
                            <path d="M77.4,21.3 C77.2720028,18.9780204 76.499984,17.1469951 75.0862497,15.8083706 C73.6713622,14.4700355 71.8079082,13.8 69.4930047,13.8 C67.2429647,13.8 65.3708622,14.4781361 63.8764089,15.8320938 C62.3816674,17.1869195 61.4900116,19.0098442 61.2,21.3 L77.4,21.3 Z M78.2788669,13.6952848 C80.2924778,16.0271086 81.3,19.2663455 81.3,23.4135722 C81.3,24.0565754 81.2836572,24.5386837 81.2521183,24.8604736 L61.2074721,24.8604736 C61.5589867,27.1429909 62.5105992,28.9586821 64.0611627,30.3089889 C65.6108661,31.659584 67.5215457,32.3351699 69.7909078,32.3351699 C71.2938764,32.3351699 72.6927668,32.0623982 73.9875791,31.5148362 C75.2815313,30.9684276 76.408901,30.1974004 77.3673947,29.1997362 L79.8133743,31.7558903 C78.5664437,33.1064855 77.0634751,34.1511495 75.3059022,34.890459 C73.5471824,35.6306336 71.5966491,36 69.4554494,36 C66.9618748,36 64.7481358,35.461665 62.8142321,34.3847067 C60.8788949,33.3071717 59.3773599,31.7887614 58.3064733,29.8274573 C57.2350132,27.86673 56.7,25.6315008 56.7,23.1237882 C56.7,20.6166523 57.2350132,18.3903618 58.3064733,16.4443399 C59.3773599,14.5003364 60.8720137,12.9724108 62.7895745,11.8631581 C64.7085689,10.7536171 66.8973636,10.2 69.359686,10.2 C73.2922913,10.2 76.265256,11.3649027 78.2788669,13.6952848 L78.2788669,13.6952848 Z" id="Fill-4-Copy"></path>
                        </g>
                    </g>
                    <g id="mark">
                        <polygon id="Fill-1" points="34.8184601 4.04065033 6.97283418 20.1935357 6.96624873 43.9248266 0 39.8872854 0 16.1552172 27.8913367 0"></polygon>
                        <polygon id="Fill-2" points="42.0499864 31.7794016 69.9047545 47.9423412 69.9047545 24.1983577 42.0499864 8.03502926 14.1952184 24.1983577 14.1952184 47.9423412 21.1589104 43.9019952 21.1589104 28.2394814 42.0499864 16.1168879"></polygon>
                    </g>
                </g>
            </g>
        </g>
    </g>
</svg>