<?xml version="1.0" encoding="UTF-8"?>
<svg width="640px" height="640px" viewBox="0 0 640 640" version="1.1" xmlns="http://www.w3.org/2000/svg" xmlns:xlink="http://www.w3.org/1999/xlink">
    <!-- Generator: Sketch 46.2 (44496) - http://www.bohemiancoding.com/sketch -->
    <title>logo_bee_vertical</title>
    <desc>Created with Sketch.</desc>
    <defs></defs>
    <g id="Logo" stroke="none" stroke-width="1" fill="none" fill-rule="evenodd">
        <g id="logo_bee_vertical" fill="#FFC107">
            <g id="logo_bee" transform="translate(180.000000, 143.000000)">
                <g id="mark">
                    <polygon id="Fill-1" points="138.931298 16.1228495 27.8227382 80.5754797 27.7964612 175.267176 0 159.156732 0 64.4619345 111.290953 0"></polygon>
                    <polygon id="Fill-2" points="167.78626 126.804962 278.931298 191.29771 278.931298 96.5553682 167.78626 32.0610687 56.6412214 96.5553682 56.6412214 191.29771 84.4274809 175.176074 84.4274809 112.680107 167.78626 64.3089942"></polygon>
                </g>
                <g id="bee" transform="translate(0.000000, 229.444444)">
                    <path d="M73.1755013,95.7111302 C75.6446391,90.9270718 76.8816703,85.521785 76.8816703,79.5082536 C76.8816703,73.6095795 75.617062,68.265217 73.091785,63.4741674 C70.5635533,58.6861139 67.1065633,54.9527506 62.7139208,52.2830663 C58.3222632,49.6083882 53.3248937,48.2730466 47.723782,48.2730466 C42.1246402,48.2730466 37.0987086,49.6083882 32.6538665,52.2830663 C28.2060698,54.9527506 24.718548,58.6861139 22.1922861,63.4741674 C19.6640544,68.265217 18.4033857,73.6095795 18.4033857,79.5082536 C18.4033857,85.6356436 19.6640544,91.0658994 22.1922861,95.7960248 C24.718548,100.530145 28.2060698,104.231548 32.6538665,106.906226 C37.0987086,109.576909 42.1246402,110.912251 47.723782,110.912251 C53.3248937,110.912251 58.3498403,109.576909 62.7946824,106.906226 C67.2434641,104.231548 70.7024238,100.50218 73.1755013,95.7111302 Z M84.1742583,56.6256729 C87.6864025,63.4202343 89.4444444,71.2165516 89.4444444,80.0096309 C89.4444444,88.6968417 87.7149646,96.4102619 84.2550199,103.143899 C80.79803,109.885526 75.9080143,115.117029 69.5938369,118.849393 C63.2796595,122.578762 56.0613463,124.444444 47.9359425,124.444444 C40.5777739,124.444444 34.0981337,122.884382 28.4989919,119.766255 C22.8978802,116.651123 18.502283,112.194658 15.3190945,106.404849 L15.3190945,123.943067 L0,123.943067 L0,0 L15.3190945,0 L15.3190945,53.1180293 C18.502283,47.32822 22.8703031,42.8747511 28.4142907,39.7566237 C33.9582783,36.6384963 40.3571568,35.0784338 47.6069868,35.0784338 C55.7323905,35.0784338 62.9782809,36.972082 69.3485974,40.7583795 C75.7159593,44.5436783 80.6581745,49.8351066 84.1742583,56.6256729 Z" id="Fill-1"></path>
                    <path d="M171.312669,73.4819121 C170.872571,65.4319828 168.218102,59.0841129 163.357193,54.4433176 C158.492319,49.8035253 152.085118,47.4806202 144.125677,47.4806202 C136.389259,47.4806202 129.952321,49.8316088 124.813872,54.5255621 C119.674432,59.2225244 116.60861,65.5423107 115.61145,73.4819121 L171.312669,73.4819121 Z M174.334519,47.1175895 C181.258011,55.2016471 184.722222,66.4315597 184.722222,80.8093265 C184.722222,83.0385152 184.66603,84.7099068 184.557588,85.8255008 L115.637142,85.8255008 C116.845771,93.7386206 120.117745,100.033329 125.44912,104.714626 C130.777538,109.396921 137.347117,111.739069 145.149971,111.739069 C150.317698,111.739069 155.127569,110.793413 159.579583,108.895104 C164.028639,107.000794 167.904927,104.327766 171.200561,100.869025 L179.610687,109.7308 C175.323307,114.413096 170.15558,118.034777 164.112435,120.597845 C158.065346,123.163911 151.358736,124.444444 143.996548,124.444444 C135.422774,124.444444 127.811171,122.578124 121.16174,118.844483 C114.507379,115.108842 109.344581,109.844758 105.662501,103.045233 C101.97845,96.2477074 100.138889,88.4985279 100.138889,79.8046922 C100.138889,71.1128558 101.97845,63.394665 105.662501,56.6481206 C109.344581,49.9085736 114.483719,44.6115017 121.076958,40.7659014 C127.675127,36.9193014 135.200962,35 143.667281,35 C157.188942,35 167.411026,39.0385301 174.334519,47.1175895 L174.334519,47.1175895 Z" id="Fill-4"></path>
                    <path d="M266.590447,73.4819121 C266.150349,65.4319828 263.49588,59.0841129 258.634971,54.4433176 C253.770097,49.8035253 247.362896,47.4806202 239.403455,47.4806202 C231.667036,47.4806202 225.230099,49.8316088 220.09165,54.5255621 C214.95221,59.2225244 211.886388,65.5423107 210.889228,73.4819121 L266.590447,73.4819121 Z M269.612296,47.1175895 C276.535789,55.2016471 280,66.4315597 280,80.8093265 C280,83.0385152 279.943808,84.7099068 279.835366,85.8255008 L210.914919,85.8255008 C212.123548,93.7386206 215.395522,100.033329 220.726898,104.714626 C226.055315,109.396921 232.624895,111.739069 240.427749,111.739069 C245.595476,111.739069 250.405347,110.793413 254.85736,108.895104 C259.306417,107.000794 263.182705,104.327766 266.478339,100.869025 L274.888465,109.7308 C270.601085,114.413096 265.433358,118.034777 259.390212,120.597845 C253.343124,123.163911 246.636514,124.444444 239.274326,124.444444 C230.700552,124.444444 223.088949,122.578124 216.439518,118.844483 C209.785157,115.108842 204.622359,109.844758 200.940279,103.045233 C197.256228,96.2477074 195.416667,88.4985279 195.416667,79.8046922 C195.416667,71.1128558 197.256228,63.394665 200.940279,56.6481206 C204.622359,49.9085736 209.761497,44.6115017 216.354736,40.7659014 C222.952904,36.9193014 230.47874,35 238.945059,35 C252.46672,35 262.688804,39.0385301 269.612296,47.1175895 L269.612296,47.1175895 Z" id="Fill-4-Copy"></path>
                </g>
            </g>
        </g>
    </g>
</svg>