<?xml version="1.0" encoding="UTF-8"?>
<svg width="39px" height="39px" viewBox="0 0 39 39" version="1.1" xmlns="http://www.w3.org/2000/svg" xmlns:xlink="http://www.w3.org/1999/xlink">
    <!-- Generator: Sketch 46.2 (44496) - http://www.bohemiancoding.com/sketch -->
    <title>Fill 184</title>
    <desc>Created with Sketch.</desc>
    <defs></defs>
    <g id="Design" stroke="none" stroke-width="1" fill="none" fill-rule="evenodd">
        <g id="v0_main" transform="translate(-1105.000000, -40.000000)" fill="#FFC107">
            <g id="icons_social" transform="translate(1033.000000, 40.000000)">
                <g id="twitter" transform="translate(72.000000, 0.000000)">
                    <path d="M27.1061818,15.5233406 C27.1134545,15.6951844 27.118303,15.8670281 27.118303,16.0413094 C27.118303,21.3270281 23.1158788,27.4232156 15.7970909,27.4232156 C13.5498182,27.4232156 11.4589091,26.7614344 9.69769697,25.6267781 C10.0092121,25.6633406 10.3255758,25.6816219 10.6467879,25.6816219 C12.5110303,25.6816219 14.2261818,25.0429969 15.5886061,23.9692781 C13.8467879,23.9375906 12.377697,22.7809969 11.8710303,21.1917469 C12.1146667,21.2380594 12.3631515,21.2624344 12.6201212,21.2624344 C12.9825455,21.2624344 13.3340606,21.2136844 13.6686061,21.1222781 C11.848,20.7554344 10.4770909,19.1381531 10.4770909,17.2003406 L10.4770909,17.1491531 C11.0128485,17.4489656 11.6273939,17.6293406 12.2795152,17.6500594 C11.2116364,16.9322156 10.5086061,15.7073719 10.5086061,14.3204344 C10.5086061,13.5867469 10.7049697,12.8993719 11.048,12.3082781 C13.0104242,14.7287156 15.9425455,16.3216219 19.2492121,16.4885906 C19.1813333,16.1960906 19.1461818,15.8901844 19.1461818,15.5769656 C19.1461818,13.3673719 20.928,11.5758094 23.1243636,11.5758094 C24.2698182,11.5758094 25.3037576,12.0620906 26.0286061,12.8396531 C26.9352727,12.6604969 27.7873939,12.3277781 28.5558788,11.8695281 C28.2589091,12.8030906 27.6273939,13.5867469 26.8067879,14.0827781 C27.6116364,13.9852781 28.377697,13.7707781 29.0916364,13.4526844 C28.558303,14.2546219 27.8831515,14.9590594 27.1061818,15.5233406 M19.3946667,0.000121875 C8.68315152,0.000121875 0.000727272727,8.73002813 0.000727272727,19.5001219 C0.000727272727,30.2689969 8.68315152,39.0001219 19.3946667,39.0001219 C30.1061818,39.0001219 38.7886061,30.2689969 38.7886061,19.5001219 C38.7886061,8.73002813 30.1061818,0.000121875 19.3946667,0.000121875" id="Fill-184"></path>
                </g>
            </g>
        </g>
    </g>
</svg>