<?xml version="1.0" encoding="UTF-8"?>
<svg width="104px" height="131px" viewBox="0 0 104 131" version="1.1" xmlns="http://www.w3.org/2000/svg" xmlns:xlink="http://www.w3.org/1999/xlink">
    <!-- Generator: Sketch 46.2 (44496) - http://www.bohemiancoding.com/sketch -->
    <title>logo_bee</title>
    <desc>Created with Sketch.</desc>
    <defs></defs>
    <g id="Design" stroke="none" stroke-width="1" fill="none" fill-rule="evenodd">
        <g id="bee_v1" transform="translate(-274.000000, -258.000000)" fill="#FFC107">
            <g id="text_hero" transform="translate(246.000000, 258.000000)">
                <g id="logo_bee" transform="translate(28.000000, 0.000000)">
                    <g id="mark">
                        <polygon id="Fill-1" points="51.2940749 5.98233674 10.2722831 29.8972989 10.2625815 65.032379 0 59.0546454 0 23.9184145 41.0891323 0"></polygon>
                        <polygon id="Fill-2" points="61.9474597 47.0506147 102.98272 70.9804625 102.98272 35.8265904 61.9474597 11.8961669 20.9121998 35.8265904 20.9121998 70.9804625 31.1710147 64.9985762 31.1710147 41.809628 61.9474597 23.8616665"></polygon>
                    </g>
                    <g id="bee" transform="translate(0.000000, 85.000000)">
                        <path d="M27.1052786,35.1703523 C28.0198835,33.4123852 28.478098,31.4261393 28.478098,29.2163857 C28.478098,27.0488379 28.0096685,25.0849795 27.0742689,23.3244433 C26.1377748,21.5650082 24.857255,20.1931332 23.2301558,19.2121215 C21.6034215,18.2292748 19.7523225,17.7385854 17.6775886,17.7385854 C15.6035844,17.7385854 13.7419056,18.2292748 12.095471,19.2121215 C10.4479418,20.1931332 9.15611262,21.5650082 8.22034817,23.3244433 C7.28385409,25.0849795 6.81688391,27.0488379 6.81688391,29.2163857 C6.81688391,31.4679782 7.28385409,33.4633993 8.22034817,35.201548 C9.15611262,36.9411647 10.4479418,38.3012954 12.095471,39.2841422 C13.7419056,40.2655209 15.6035844,40.7562102 17.6775886,40.7562102 C19.7523225,40.7562102 21.6136364,40.2655209 23.2600711,39.2841422 C24.9079651,38.3012954 26.1892145,36.9308885 27.1052786,35.1703523 Z M31.1793795,20.8078712 C32.4803292,23.3046249 33.1315337,26.1694874 33.1315337,29.4006236 C33.1315337,32.5928569 32.490909,35.4272578 31.2092948,37.901624 C29.928775,40.3789263 28.1174415,42.3013128 25.7785776,43.6728208 C23.4397137,45.0432277 20.7659447,45.7287982 17.756176,45.7287982 C15.0306024,45.7287982 12.6304487,45.1555321 10.5564445,44.0097339 C8.48171057,42.8650367 6.85351692,41.2274482 5.67441723,39.0999043 L5.67441723,45.5445603 L0,45.5445603 L0,0 L5.67441723,0 L5.67441723,19.51894 C6.85351692,17.3913961 8.4714956,15.7549085 10.5250699,14.6091104 C12.5786442,13.4633122 14.9488826,12.8900461 17.6343259,12.8900461 C20.6440946,12.8900461 23.3280787,13.5858928 25.6877373,14.9772191 C28.0463015,16.3681785 29.8769705,18.3125855 31.1793795,20.8078712 Z" id="Fill-1"></path>
                        <path d="M63.4567246,27.0019248 C63.2937057,24.0438691 62.3104516,21.7112583 60.5098996,20.0059351 C58.707879,18.3009805 56.3345576,17.4473976 53.3862639,17.4473976 C50.5205812,17.4473976 48.1362451,18.3113002 46.2328884,20.036157 C44.3291645,21.7621195 43.193539,24.0844106 42.8241762,27.0019248 L63.4567246,27.0019248 Z M64.5760619,17.313997 C67.1406251,20.2845936 68.4238196,24.4111772 68.4238196,29.6944826 C68.4238196,30.5136281 68.4030052,31.1278037 68.3628369,31.5377438 L42.8336928,31.5377438 C43.2813867,34.4455269 44.4933738,36.7586031 46.4681934,38.4788088 C48.4419175,40.1993818 50.875386,41.0600357 53.7656775,41.0600357 C55.6798795,41.0600357 57.4615261,40.7125416 59.1106173,40.0149822 C60.758613,39.3188922 62.194447,38.3366521 63.4151981,37.0656908 L66.5304322,40.32207 C64.9423237,42.0426431 63.0281218,43.3734791 60.7896521,44.3153129 C58.5497218,45.2582486 56.0654952,45.7287982 53.3384329,45.7287982 C50.1625813,45.7287982 47.3431319,45.0429933 44.880085,43.6710163 C42.4152122,42.2983046 40.502836,40.3639456 39.1389398,37.8653679 C37.7743131,35.3675249 37.0929127,32.5199838 37.0929127,29.3253161 C37.0929127,26.1313829 37.7743131,23.2952291 39.1389398,20.8161199 C40.502836,18.339582 42.4064482,16.3931011 44.8486807,14.9799831 C47.292739,13.5664978 50.0804188,12.8612245 53.2164674,12.8612245 C58.2250889,12.8612245 62.0114987,14.3452371 64.5760619,17.313997 L64.5760619,17.313997 Z" id="Fill-4"></path>
                        <path d="M98.7490106,27.0019248 C98.5859916,24.0438691 97.6027375,21.7112583 95.8021855,20.0059351 C94.0001649,18.3009805 91.6268436,17.4473976 88.6785499,17.4473976 C85.8128671,17.4473976 83.428531,18.3113002 81.5251743,20.036157 C79.6214504,21.7621195 78.4858249,24.0844106 78.1164621,27.0019248 L98.7490106,27.0019248 Z M99.8683478,17.313997 C102.432911,20.2845936 103.716106,24.4111772 103.716106,29.6944826 C103.716106,30.5136281 103.695291,31.1278037 103.655123,31.5377438 L78.1259787,31.5377438 C78.5736726,34.4455269 79.7856597,36.7586031 81.7604793,38.4788088 C83.7342034,40.1993818 86.1676719,41.0600357 89.0579635,41.0600357 C90.9721654,41.0600357 92.753812,40.7125416 94.4029032,40.0149822 C96.0508989,39.3188922 97.4867329,38.3366521 98.707484,37.0656908 L101.822718,40.32207 C100.23461,42.0426431 98.3204077,43.3734791 96.081938,44.3153129 C93.8420077,45.2582486 91.3577811,45.7287982 88.6307188,45.7287982 C85.4548672,45.7287982 82.6354179,45.0429933 80.1723709,43.6710163 C77.7074981,42.2983046 75.795122,40.3639456 74.4312257,37.8653679 C73.0665991,35.3675249 72.3851987,32.5199838 72.3851987,29.3253161 C72.3851987,26.1313829 73.0665991,23.2952291 74.4312257,20.8161199 C75.795122,18.339582 77.6987341,16.3931011 80.1409666,14.9799831 C82.5850249,13.5664978 85.3727047,12.8612245 88.5087533,12.8612245 C93.5173748,12.8612245 97.3037846,14.3452371 99.8683478,17.313997 L99.8683478,17.313997 Z" id="Fill-4-Copy"></path>
                    </g>
                </g>
            </g>
        </g>
    </g>
</svg>