<?xml version="1.0" encoding="UTF-8"?>
<svg width="40px" height="40px" viewBox="0 0 40 40" version="1.1" xmlns="http://www.w3.org/2000/svg" xmlns:xlink="http://www.w3.org/1999/xlink">
    <!-- Generator: Sketch 46.2 (44496) - http://www.bohemiancoding.com/sketch -->
    <title>Telegram_White</title>
    <desc>Created with Sketch.</desc>
    <defs></defs>
    <g id="Design" stroke="none" stroke-width="1" fill="none" fill-rule="evenodd" opacity="0.799999952">
        <g id="bee-v2:desktop" transform="translate(-772.000000, -9434.000000)" fill="#90A4AE">
            <g id="social" transform="translate(557.000000, 9386.000000)">
                <g id="icons_social" transform="translate(0.000000, 48.000000)">
                    <g id="Telegram" transform="translate(215.000000, 0.000000)">
                        <path d="M16.6736192,24.0685445 L16.3333333,29.1666667 C16.8333333,29.1666667 17.05425,28.938 17.3333333,28.6666667 L19.7355922,26.3307702 L24.7333333,30.0231667 C25.6530833,30.53065 26.3169,30.2679 26.546,29.16925 L29.8268333,13.70875 C30.1627333,12.36205 29.3134833,11.75125 28.4336,12.1507167 L9.1686,19.5792167 C7.85358333,20.1066667 7.86125,20.8403167 8.9289,21.1672167 L13.8727333,22.7102667 L25.3182333,15.4894333 C25.85855,15.1617833 26.35445,15.337935 25.9474333,15.6991667 L16.6733333,24.0683333 Z M20,40 C8.954305,40 0,31.045695 0,20 C0,8.954305 8.954305,0 20,0 C31.045695,0 40,8.954305 40,20 C40,31.045695 31.045695,40 20,40 Z" id="Combined-Shape"></path>
                    </g>
                </g>
            </g>
        </g>
    </g>
</svg>