<?xml version="1.0" encoding="UTF-8"?>
<svg width="126px" height="36px" viewBox="0 0 126 36" version="1.1" xmlns="http://www.w3.org/2000/svg" xmlns:xlink="http://www.w3.org/1999/xlink">
    <!-- Generator: Sketch 46.2 (44496) - http://www.bohemiancoding.com/sketch -->
    <title>logo_bee</title>
    <desc>Created with Sketch.</desc>
    <defs></defs>
    <g id="•-Navigation" stroke="none" stroke-width="1" fill="none" fill-rule="evenodd" opacity="0.798018521">
        <g id="Desktop/Navigation/Sticky" transform="translate(-80.000000, -22.000000)" fill="#FFC107">
            <g id="logo_bee" transform="translate(80.000000, 22.000000)">
                <g transform="translate(64.216216, 4.864865)" id="bee">
                    <g>
                        <path d="M15.9713644,20.9529772 C16.5102811,19.9056563 16.7802769,18.7223367 16.7802769,17.4058609 C16.7802769,16.1145296 16.5042621,14.9445475 15.9530924,13.8956961 C15.4012778,12.8475006 14.6467514,12.0301968 13.6880085,11.4457524 C12.7294805,10.8602147 11.6387492,10.5678832 10.4162445,10.5678832 C9.19416972,10.5678832 8.09720444,10.8602147 7.12706838,11.4457524 C6.15628743,12.0301968 5.39509714,12.8475006 4.84371247,13.8956961 C4.29189788,14.9445475 4.01674296,16.1145296 4.01674296,17.4058609 C4.01674296,18.7472625 4.29189788,19.9360482 4.84371247,20.9715622 C5.39509714,22.0079507 6.15628743,22.8182578 7.12706838,23.4037955 C8.09720444,23.9884585 9.19416972,24.2807901 10.4162445,24.2807901 C11.6387492,24.2807901 12.7354995,23.9884585 13.7056356,23.4037955 C14.6766315,22.8182578 15.4315878,22.0018286 15.9713644,20.9529772 Z M18.3719651,12.3964311 C19.1385295,13.8838891 19.5222416,15.5906505 19.5222416,17.5156219 C19.5222416,19.4174167 19.1447634,21.1060303 18.3895922,22.5801509 C17.6350658,24.0560206 16.5677656,25.2012955 15.1896264,26.0183807 C13.8114872,26.83481 12.2360103,27.2432432 10.4625509,27.2432432 C8.856549,27.2432432 7.4422957,26.9017161 6.22022092,26.219099 C4.99771621,25.5371378 4.03832839,24.5615333 3.34356221,23.2940345 L3.34356221,27.1334823 L0,27.1334823 L0,0 L3.34356221,0 L3.34356221,11.6285416 C4.03832839,10.3610428 4.99169719,9.38609416 6.20173395,8.70347708 C7.4117707,8.02086 8.80839689,7.67933281 10.3907526,7.67933281 C12.1642121,7.67933281 13.745708,8.09388822 15.1361002,8.92278039 C16.5258475,9.75145391 17.6045408,10.9098477 18.3719651,12.3964311 Z" id="Fill-1"></path>
                        <path d="M37.2493345,16.1189189 C37.1535954,14.3617451 36.5761418,12.9761044 35.5186988,11.9630913 C34.4603933,10.9502971 33.0665695,10.4432432 31.3350712,10.4432432 C29.6520894,10.4432432 28.2517968,10.9564273 27.1339778,11.981044 C26.0159431,13.0063174 25.3490036,14.385828 25.1320811,16.1189189 L37.2493345,16.1189189 Z M37.9067082,10.3639993 C39.412846,12.1286228 40.1664511,14.5799372 40.1664511,17.718379 C40.1664511,18.204976 40.154227,18.5698147 40.1306366,18.8133314 L25.1376701,18.8133314 C25.4005955,20.5406418 26.1123813,21.9146784 27.2721696,22.9365321 C28.4313146,23.9586041 29.8604621,24.4698583 31.5578964,24.4698583 C32.6820847,24.4698583 33.7284248,24.2634364 34.6969167,23.8490652 C35.6647652,23.4355669 36.5080137,22.8520868 37.2249465,22.0970977 L39.0544869,24.0314846 C38.1218095,25.0535566 36.9976211,25.8441131 35.6829942,26.4035906 C34.3675094,26.9637227 32.9085523,27.2432432 31.3069806,27.2432432 C29.4418403,27.2432432 27.7860108,26.8358546 26.3394922,26.0208591 C24.8919014,25.2054272 23.7687853,24.0563599 22.9677851,22.5721299 C22.1663559,21.0883362 21.7661774,19.3968114 21.7661774,17.499083 C21.7661774,15.6017909 22.1663559,13.9170305 22.9677851,12.4443653 C23.7687853,10.9732275 24.8867544,9.81695951 26.3210488,8.97752507 C27.7564156,8.13787242 29.3935872,7.71891892 31.2353517,7.71891892 C34.1768563,7.71891892 36.4005703,8.60046692 37.9067082,10.3639993 L37.9067082,10.3639993 Z" id="Fill-4"></path>
                        <path d="M57.8935441,16.1189189 C57.7978049,14.3617451 57.2203513,12.9761044 56.1629083,11.9630913 C55.1046028,10.9502971 53.710779,10.4432432 51.9792807,10.4432432 C50.2962989,10.4432432 48.8960063,10.9564273 47.7781873,11.981044 C46.6601526,13.0063174 45.9932131,14.385828 45.7762906,16.1189189 L57.8935441,16.1189189 Z M58.5509177,10.3639993 C60.0570555,12.1286228 60.8106606,14.5799372 60.8106606,17.718379 C60.8106606,18.204976 60.7984365,18.5698147 60.7748461,18.8133314 L45.7818796,18.8133314 C46.044805,20.5406418 46.7565908,21.9146784 47.9163791,22.9365321 C49.0755241,23.9586041 50.5046716,24.4698583 52.2021059,24.4698583 C53.3262942,24.4698583 54.3726343,24.2634364 55.3411262,23.8490652 C56.3089748,23.4355669 57.1522232,22.8520868 57.869156,22.0970977 L59.6986964,24.0314846 C58.766019,25.0535566 57.6418306,25.8441131 56.3272037,26.4035906 C55.0117189,26.9637227 53.5527618,27.2432432 51.9511901,27.2432432 C50.0860498,27.2432432 48.4302203,26.8358546 46.9837017,26.0208591 C45.5361109,25.2054272 44.4129948,24.0563599 43.6119946,22.5721299 C42.8105654,21.0883362 42.4103869,19.3968114 42.4103869,17.499083 C42.4103869,15.6017909 42.8105654,13.9170305 43.6119946,12.4443653 C44.4129948,10.9732275 45.5309639,9.81695951 46.9652583,8.97752507 C48.4006251,8.13787242 50.0377967,7.71891892 51.8795612,7.71891892 C54.8210658,7.71891892 57.0447798,8.60046692 58.5509177,10.3639993 L58.5509177,10.3639993 Z" id="Fill-4-Copy"></path>
                    </g>
                </g>
                <g id="mark">
                    <polygon id="Fill-1" points="26.1497631 3.03048775 5.23681867 15.1451518 5.23187278 32.9436199 0 29.915464 0 12.1164129 20.9472747 0"></polygon>
                    <polygon id="Fill-2" points="31.5808677 23.8345512 52.5006782 35.9567559 52.5006782 18.1487683 31.5808677 6.02627194 10.6610573 18.1487683 10.6610573 35.9567559 15.8910099 32.9264964 15.8910099 21.1796111 31.5808677 12.0876659"></polygon>
                </g>
            </g>
        </g>
    </g>
</svg>