<?xml version="1.0" encoding="UTF-8"?>
<svg width="20px" height="20px" viewBox="0 0 20 20" version="1.1" xmlns="http://www.w3.org/2000/svg" xmlns:xlink="http://www.w3.org/1999/xlink">
    <!-- Generator: Sketch 46.2 (44496) - http://www.bohemiancoding.com/sketch -->
    <title>icon/social/medium@3x</title>
    <desc>Created with Sketch.</desc>
    <defs>
        <path d="M6.92625192,5.03303307 C6.97156868,5.05672763 7.00018652,5.10522032 7.00018652,5.15819226 L7.00018652,17.8225108 C7.00018652,18.0590668 6.87801751,18.2000008 6.70382736,18.2000008 C6.64199793,18.2000008 6.57358825,18.1822136 6.5017643,18.1446269 L1.33230217,15.4416947 C1.14954529,15.3461375 1,15.0931575 1,14.8794521 L1,2.32289513 C1,2.24493031 1.02005111,2.18261038 1.05425595,2.13950576 C1.08920572,2.09542739 1.13886792,2.07127842 1.19759346,2.07127842 C1.23881308,2.07127842 1.28444023,2.08309324 1.33230217,2.10815104 L6.92625192,5.03303307 Z M13.4783096,15.5140118 L19.0000008,6.13096741 L19.0000008,17.8182912 C19.0000008,18.1388493 18.775714,18.2838081 18.5015786,18.1404722 L13.4783096,15.5140118 Z M7.53051669,5.97289551 L13.0004351,15.2679779 L7.53051669,12.4079476 L7.53051669,5.97289551 Z M18.8685202,5.0026521 C18.9395371,5.0397844 18.9648028,5.13255021 18.9232107,5.20330929 L13.311755,14.7389077 L9.38856567,8.07210338 L12.9030351,2.09984172 C12.9404059,2.03641821 13.0094364,2 13.0787772,2 C13.0806396,2 13.0824398,2.00058425 13.0843021,2.00064917 C13.1124854,2.00142817 13.1406687,2.00772507 13.1665552,2.02129264 L18.8685202,5.0026521 Z" id="path-1"></path>
    </defs>
    <g id="•-Icons" stroke="none" stroke-width="1" fill="none" fill-rule="evenodd">
        <g id="icon/social/medium">
            <mask id="mask-2" fill="white">
                <use xlink:href="#path-1"></use>
            </mask>
            <use id="Mask" fill="#FFC107" xlink:href="#path-1"></use>
            <g id="Group" mask="url(#mask-2)" fill="#455A64">
                <g id="Color/Blue3">
                    <rect id="Rectangle" x="0" y="0" width="20" height="20"></rect>
                </g>
            </g>
        </g>
    </g>
</svg>