<?xml version="1.0" encoding="UTF-8"?>
<svg width="40px" height="40px" viewBox="0 0 40 40" version="1.1" xmlns="http://www.w3.org/2000/svg" xmlns:xlink="http://www.w3.org/1999/xlink">
    <!-- Generator: Sketch 46.2 (44496) - http://www.bohemiancoding.com/sketch -->
    <title>Medium_White</title>
    <desc>Created with Sketch.</desc>
    <defs></defs>
    <g id="Design" stroke="none" stroke-width="1" fill="none" fill-rule="evenodd" opacity="0.799999952">
        <g id="bee-v2:desktop" transform="translate(-557.000000, -9434.000000)" fill="#90A4AE">
            <g id="social" transform="translate(557.000000, 9386.000000)">
                <g id="icons_social" transform="translate(0.000000, 48.000000)">
                    <g id="Medium">
                        <path d="M0,20 C0,8.95430446 8.95430446,0 20,0 C31.0456955,0 40,8.95430446 40,20 C40,31.0456955 31.0456955,40 20,40 C8.95430446,40 0,31.0456955 0,20 Z M16.7837305,14.6140837 L10.3803835,11.4503174 C10.3255963,11.4232131 10.2733673,11.4104333 10.2261836,11.4104333 C10.1589609,11.4104333 10.102113,11.4365546 10.0621063,11.484233 C10.0229523,11.5308581 10,11.5982679 10,11.6826003 L10,25.2646904 C10,25.4958498 10.1711832,25.7694915 10.3803835,25.8728531 L16.2978232,28.7965422 C16.3800394,28.8371988 16.4583474,28.8564386 16.529123,28.8564386 C16.728517,28.8564386 16.8683629,28.7039942 16.8683629,28.4481179 L16.8683629,14.749465 C16.8683629,14.6921667 16.8356043,14.6397134 16.7837305,14.6140837 Z M24.2838157,25.9510766 L30.0339093,28.7920482 C30.3477097,28.9470908 30.604449,28.7902928 30.604449,28.4435537 L30.604449,15.8016897 L24.2838157,25.9510766 Z M17.4754273,15.6307076 L17.4754273,22.5913304 L23.7367968,25.6849483 L17.4754273,15.6307076 Z M30.4539442,14.5812214 L23.926953,11.356365 C23.897321,11.3416893 23.8650598,11.3348781 23.8327987,11.3340355 C23.8306669,11.3339653 23.8286061,11.3333333 23.8264743,11.3333333 C23.7471005,11.3333333 23.6680819,11.3727259 23.6253038,11.4413294 L19.6023203,17.9013643 L24.093162,25.1126673 L30.516548,14.7982669 C30.5641581,14.7217287 30.5352367,14.6213864 30.4539442,14.5812214 Z" id="Combined-Shape"></path>
                    </g>
                </g>
            </g>
        </g>
    </g>
</svg>