<?xml version="1.0" encoding="UTF-8"?>
<svg width="23px" height="20px" viewBox="0 0 23 20" version="1.1" xmlns="http://www.w3.org/2000/svg" xmlns:xlink="http://www.w3.org/1999/xlink">
    <!-- Generator: Sketch 46.2 (44496) - http://www.bohemiancoding.com/sketch -->
    <title>Group 8</title>
    <desc>Created with Sketch.</desc>
    <defs></defs>
    <g id="Design" stroke="none" stroke-width="1" fill="none" fill-rule="evenodd">
        <g id="bee_v2" transform="translate(-178.000000, -781.000000)" fill="#FFC107">
            <g id="Group-5" transform="translate(178.000000, 780.000000)">
                <g id="Group-8" transform="translate(0.000000, 1.000000)">
                    <path d="M7.46494199,4.0535202 L0.418580992,0.588442878 C0.358292193,0.558757157 0.300818434,0.544760263 0.248896562,0.544760263 C0.174923534,0.544760263 0.112367063,0.5733693 0.0683429455,0.625588482 C0.0252571755,0.676654075 0,0.750483848 0,0.842847969 L0,15.7184705 C0,15.971645 0.188373176,16.2713478 0.418580992,16.3845534 L6.93024054,19.5866891 C7.02071284,19.6312177 7.10688438,19.6522899 7.18476719,19.6522899 C7.40418401,19.6522899 7.55807293,19.485327 7.55807293,19.2050815 L7.55807293,4.201795 C7.55807293,4.13903969 7.52202477,4.0815909 7.46494199,4.0535202" id="Fill-51"></path>
                    <path d="M15.7181737,16.4702267 L22.0456826,19.5817671 C22.3909944,19.7515756 22.673515,19.5798445 22.673515,19.2000826 L22.673515,5.3542316 L15.7181737,16.4702267" id="Fill-50"></path>
                    <polyline id="Fill-48" points="8.22609786 5.16696546 8.22609786 12.7905047 15.1162241 16.1787529 8.22609786 5.16696546"></polyline>
                    <path d="M22.5078968,4.01752819 L15.3254755,0.485542633 C15.2928679,0.469469276 15.2573671,0.462009393 15.2218663,0.46108652 C15.2195204,0.461009614 15.2172528,0.46031746 15.2149069,0.46031746 C15.1275624,0.46031746 15.0406089,0.503461734 14.9935352,0.578598908 L10.5665701,7.65387521 L15.5083749,15.5519689 L22.5767871,4.25524468 C22.6291781,4.17141712 22.5973525,4.06151843 22.5078968,4.01752819" id="Fill-47"></path>
                </g>
            </g>
        </g>
    </g>
</svg>