<?xml version="1.0" encoding="UTF-8"?>
<svg width="40px" height="40px" viewBox="0 0 40 40" version="1.1" xmlns="http://www.w3.org/2000/svg" xmlns:xlink="http://www.w3.org/1999/xlink">
    <!-- Generator: Sketch 46.2 (44496) - http://www.bohemiancoding.com/sketch -->
    <title>slack</title>
    <desc>Created with Sketch.</desc>
    <defs></defs>
    <g id="Design" stroke="none" stroke-width="1" fill="none" fill-rule="evenodd" opacity="0.799999952">
        <g id="bee-v2:desktop" transform="translate(-700.000000, -9434.000000)" fill="#90A4AE">
            <g id="social" transform="translate(557.000000, 9386.000000)">
                <g id="icons_social" transform="translate(0.000000, 48.000000)">
                    <g id="slack" transform="translate(143.000000, 0.000000)">
                        <path d="M0,20 C0,31.045 8.95375,40 20,40 C31.045,40 40,31.045 40,20 C40,8.95375 31.045,0 20,0 C8.95375,0 0,8.95375 0,20 Z M28.87625,22.6725 L26.85375,23.35 L27.555,25.4425 C27.83875,26.29 27.38125,27.2075 26.53375,27.49125 C26.35,27.5525 26.1625,27.58 25.97875,27.575 C25.3175,27.5575 24.7075,27.13375 24.48625,26.47 L23.785,24.3775 L19.61375,25.775 L20.315,27.8675 C20.59875,28.715 20.1425,29.63125 19.295,29.91625 C19.11,29.9775 18.9225,30.00375 18.73875,29.99875 C18.07875,29.9825 17.46875,29.55875 17.24625,28.895 L16.545,26.8025 L14.5225,27.48 C14.3375,27.54125 14.15,27.5675 13.9675,27.56375 C13.30625,27.54625 12.69625,27.1225 12.47375,26.45875 C12.19,25.61125 12.6475,24.695 13.495,24.41125 L15.5175,23.73375 L14.1725,19.71875 L12.15,20.39625 C11.96625,20.4575 11.77875,20.485 11.595,20.48 C10.93375,20.4625 10.32375,20.03875 10.1025,19.375 C9.8175,18.5275 10.275,17.61125 11.1225,17.3275 L13.145,16.65 L12.44375,14.5575 C12.16,13.71 12.6175,12.7925 13.465,12.50875 C14.3125,12.225 15.22875,12.6825 15.5125,13.52875 L16.21375,15.6225 L20.385,14.225 L19.68375,12.1325 C19.4,11.285 19.85625,10.3675 20.70375,10.08375 C21.55125,9.8 22.46875,10.2575 22.7525,11.105 L23.45375,13.1975 L25.47625,12.52 C26.32375,12.23625 27.24,12.69375 27.525,13.54 C27.80875,14.3875 27.35125,15.305 26.50375,15.58875 L24.48125,16.26625 L25.82625,20.28125 L27.84875,19.60375 C28.69625,19.32 29.6125,19.77625 29.89625,20.62375 C30.18125,21.47125 29.72375,22.38875 28.87625,22.6725" id="Fill-229"></path>
                        <polygon id="Path" points="17.2415 18.690875 18.5865 22.705875 22.75775 21.308375 21.41275 17.293375"></polygon>
                    </g>
                </g>
            </g>
        </g>
    </g>
</svg>