<?xml version="1.0" encoding="UTF-8"?>
<svg width="23px" height="22px" viewBox="0 0 23 22" version="1.1" xmlns="http://www.w3.org/2000/svg" xmlns:xlink="http://www.w3.org/1999/xlink">
    <!-- Generator: Sketch 46.2 (44496) - http://www.bohemiancoding.com/sketch -->
    <title>Combined Shape</title>
    <desc>Created with Sketch.</desc>
    <defs></defs>
    <g id="Design" stroke="none" stroke-width="1" fill="none" fill-rule="evenodd">
        <g id="bee_v2" transform="translate(-300.000000, -780.000000)" fill="#FFC107">
            <g id="Group-5" transform="translate(178.000000, 780.000000)">
                <g id="Group-6" transform="translate(122.000000, 0.000000)">
                    <path d="M20.9182165,13.8794048 L18.6926203,14.6214286 L19.4642887,16.9132143 C19.7765324,17.8414286 19.273091,18.8463095 18.3404864,19.1570833 C18.1382845,19.2241667 17.9319561,19.2542857 17.7297542,19.2488095 C17.0021025,19.2296429 16.3308473,18.7655357 16.0873797,18.0385714 L15.3157113,15.7467857 L10.725591,17.277381 L11.4972594,19.5691667 C11.8095031,20.497381 11.3074372,21.5008929 10.3748326,21.8130357 C10.1712552,21.880119 9.96492678,21.908869 9.7627249,21.9033929 C9.03644874,21.8855952 8.36519351,21.4214881 8.12035042,20.6945238 L7.34868201,18.4027381 L5.12308577,19.1447619 C4.91950837,19.2118452 4.71317992,19.2405952 4.51235356,19.2364881 C3.78470188,19.2173214 3.11344665,18.7532143 2.86860356,18.02625 C2.55635983,17.0980357 3.05980126,16.0945238 3.99240586,15.78375 L6.21800209,15.0417262 L4.73793933,10.6443452 L2.5123431,11.386369 C2.31014121,11.4534524 2.10381276,11.4835714 1.90161088,11.4780952 C1.17395921,11.4589286 0.502703975,10.9948214 0.259236402,10.2678571 C-0.0543828452,9.33964286 0.449058577,8.33613095 1.38166318,8.02535714 L3.60725941,7.28333333 L2.835591,4.99154762 C2.52334728,4.06333333 3.0267887,3.05845238 3.95939331,2.74767857 C4.89199791,2.43690476 5.90025628,2.93797619 6.2125,3.86482143 L6.98416841,6.15797619 L11.5742887,4.62738095 L10.8026203,2.33559524 C10.4903766,1.40738095 10.9924425,0.4025 11.9250471,0.0917261905 C12.8576517,-0.219047619 13.8672856,0.28202381 14.1795293,1.2102381 L14.9511977,3.50202381 L17.1767939,2.76 C18.1093985,2.44922619 19.1176569,2.95029762 19.4312762,3.87714286 C19.7435199,4.80535714 19.2400785,5.8102381 18.3074738,6.1210119 L16.0818776,6.86303571 L17.5619404,11.2604167 L19.7875366,10.5183929 C20.7201412,10.207619 21.7283996,10.7073214 22.0406433,11.6355357 C22.3542626,12.56375 21.8508211,13.568631 20.9182165,13.8794048 Z M8.11512343,9.51857738 L9.59518619,13.9159583 L14.1853065,12.3853631 L12.7052437,7.98798214 L8.11512343,9.51857738 Z" id="Combined-Shape"></path>
                </g>
            </g>
        </g>
    </g>
</svg>