<?xml version="1.0" encoding="UTF-8"?>
<svg width="20px" height="20px" viewBox="0 0 20 20" version="1.1" xmlns="http://www.w3.org/2000/svg" xmlns:xlink="http://www.w3.org/1999/xlink">
    <!-- Generator: Sketch 46.2 (44496) - http://www.bohemiancoding.com/sketch -->
    <title>icon/social/slack</title>
    <desc>Created with Sketch.</desc>
    <defs>
        <path d="M18.0039148,12.4057411 L16.1803093,13.0154999 L16.8125977,14.8987772 C17.0684435,15.6615383 16.6559345,16.4873003 15.8917784,16.742679 C15.7260986,16.7978048 15.5570375,16.8225551 15.3913576,16.8180551 C14.7951356,16.8023048 14.2451236,16.4209243 14.0456315,15.8235407 L13.4133431,13.9402633 L9.65229773,15.1980316 L10.2845861,17.0813089 C10.5404319,17.84407 10.12905,18.6687069 9.3648939,18.9252106 C9.19808697,18.9803364 9.0290259,19.0039618 8.86334605,18.9994617 C8.26825107,18.9848365 7.71823904,18.603456 7.5176199,18.0060723 L6.88533149,16.122795 L5.06172604,16.7325538 C4.89491911,16.7876796 4.72585804,16.811305 4.56130526,16.8079299 C3.96508321,16.7921797 3.41507118,16.4107992 3.21445204,15.8134155 C2.95860628,15.0506544 3.3711153,14.2260175 4.13527135,13.9706388 L5.9588768,13.3608799 L4.74614537,9.74732754 L2.92253992,10.3570864 C2.75686007,10.4122122 2.58779899,10.4369625 2.42211914,10.4324625 C1.82589709,10.4167123 1.27588506,10.0353317 1.07639299,9.43794806 C0.819420163,8.675187 1.23192918,7.85055004 1.99608524,7.59517134 L3.81969068,6.98541249 L3.18740227,5.10213518 C2.93155651,4.33937412 3.34406553,3.51361215 4.10822158,3.25823345 C4.87237764,3.00285474 5.69852275,3.41461071 5.95436851,4.17624676 L6.58665692,6.06064908 L10.3477023,4.80288085 L9.71541386,2.91960354 C9.4595681,2.15684248 9.87095005,1.3310805 10.6351061,1.0757018 C11.3992622,0.820323095 12.2265343,1.23207907 12.4823801,1.99484013 L13.1146685,3.87811744 L14.938274,3.26835859 C15.70243,3.01297989 16.5285751,3.42473586 16.785548,4.18637191 C17.0413937,4.94913297 16.6288847,5.77489494 15.8647286,6.03027364 L14.0411232,6.64003249 L15.2538546,10.2535849 L17.0774601,9.64382604 C17.8416161,9.38844734 18.6677612,9.79907829 18.923607,10.5618394 C19.1805798,11.3246004 18.7680708,12.1503624 18.0039148,12.4057411 Z M7.51333702,8.82222663 L8.72606846,12.435779 L12.4871138,11.1780108 L11.2743824,7.56445839 L7.51333702,8.82222663 Z" id="path-1"></path>
    </defs>
    <g id="•-Icons" stroke="none" stroke-width="1" fill="none" fill-rule="evenodd">
        <g id="icon/social/slack">
            <mask id="mask-2" fill="white">
                <use xlink:href="#path-1"></use>
            </mask>
            <use id="Mask" fill="#FFC107" xlink:href="#path-1"></use>
            <g id="Group" mask="url(#mask-2)" fill="#455A64">
                <g id="Color/Blue3">
                    <rect id="Rectangle" x="0" y="0" width="20" height="20"></rect>
                </g>
            </g>
        </g>
    </g>
</svg>