<?xml version="1.0" encoding="UTF-8"?>
<svg width="22px" height="19px" viewBox="0 0 22 19" version="1.1" xmlns="http://www.w3.org/2000/svg" xmlns:xlink="http://www.w3.org/1999/xlink">
    <!-- Generator: Sketch 46.2 (44496) - http://www.bohemiancoding.com/sketch -->
    <title>Group 9</title>
    <desc>Created with Sketch.</desc>
    <defs></defs>
    <g id="Design" stroke="none" stroke-width="1" fill="none" fill-rule="evenodd">
        <g id="bee_v2" transform="translate(-239.000000, -781.000000)" fill="#FFC107">
            <g id="Group-5" transform="translate(178.000000, 780.000000)">
                <g id="Group-9" transform="translate(61.000000, 1.000000)">
                    <path d="M19.4473884,5.04937307 C19.4553914,5.23758289 19.4607268,5.42579271 19.4607268,5.61667217 C19.4607268,11.4057927 15.0563854,18.0825695 7.00265652,18.0825695 C4.52971624,18.0825695 2.22884138,17.3577615 0.290771142,16.1150427 C0.63356815,16.1550874 0.98170052,16.1751097 1.33516825,16.1751097 C3.38661494,16.1751097 5.27399924,15.4756632 6.77323596,14.2996856 C4.85650716,14.2649802 3.23989248,12.9982347 2.68234715,11.2576275 C2.95044909,11.3083507 3.2238864,11.3350472 3.50666058,11.3350472 C3.90547889,11.3350472 4.29229263,11.2816543 4.66043261,11.1815427 C2.65700418,10.7797615 1.14843058,9.00845342 1.14843058,6.88608735 L1.14843058,6.83002485 C1.73798808,7.15839092 2.41424521,7.35594449 3.1318514,7.37863646 C1.95673792,6.59242664 1.18311043,5.2509311 1.18311043,3.73190432 C1.18311043,2.92834182 1.3991926,2.17550253 1.77666946,1.52811414 C3.93615722,4.17906949 7.16271738,5.9236811 10.8014343,6.10655164 C10.7267392,5.78619449 10.6880578,5.45115432 10.6880578,5.10810521 C10.6880578,2.68807396 12.6488033,0.725886458 15.0657223,0.725886458 C16.3262016,0.725886458 17.4639675,1.25848021 18.2616042,2.11009628 C19.2593169,1.91387753 20.1970067,1.54947128 21.0426616,1.04757842 C20.7158707,2.07005164 20.0209398,2.92834182 19.1179298,3.47161414 C20.0035998,3.36482842 20.846587,3.12989985 21.6322191,2.78151146 C21.0453293,3.65982396 20.3023801,4.43135074 19.4473884,5.04937307" id="Path"></path>
                </g>
            </g>
        </g>
    </g>
</svg>