<?xml version="1.0" encoding="UTF-8"?>
<svg width="20px" height="20px" viewBox="0 0 20 20" version="1.1" xmlns="http://www.w3.org/2000/svg" xmlns:xlink="http://www.w3.org/1999/xlink">
    <!-- Generator: Sketch 46.2 (44496) - http://www.bohemiancoding.com/sketch -->
    <title>icon/social/twitter</title>
    <desc>Created with Sketch.</desc>
    <defs>
        <path d="M17.1684996,7.05764813 C17.1684996,11.8606012 13.4537497,17.3999996 6.66099985,17.3999996 C4.57524991,17.3999996 2.63462496,16.7986615 1,15.7676379 C1.28912499,15.800861 1.58274998,15.8174726 1.88087498,15.8174726 C3.61112493,15.8174726 5.20299989,15.2371757 6.46749986,14.261524 C4.8508749,14.2327306 3.48737493,13.1817732 3.01712495,11.7376757 C3.24324994,11.7797583 3.47387493,11.801907 3.71237493,11.801907 C4.04874992,11.801907 4.37499991,11.7576096 4.6854999,11.6745518 C2.99574995,11.3412133 1.72337498,9.87164482 1.72337498,8.11082044 L1.72337498,8.0643081 C2.22062497,8.33673753 2.79099995,8.50063817 3.39624994,8.51946459 C2.40512496,7.86718437 1.75262498,6.75421047 1.75262498,5.49394748 C1.75262498,4.82727058 1.93487498,4.20267627 2.25324997,3.66556947 C4.07462492,5.86493878 6.79599985,7.31235857 9.86499977,7.4640774 C9.80199977,7.19829259 9.76937477,6.92032597 9.76937477,6.63571474 C9.76937477,4.62793197 11.4231247,3 13.4616247,3 C14.5247496,3 15.4843746,3.44186725 16.1571246,4.14841187 C16.9986246,3.98561868 17.7894996,3.68328845 18.5027495,3.26689225 C18.2271245,4.11518877 17.6409996,4.82727058 16.8793746,5.27799732 C17.6263746,5.18940239 18.3373745,4.99449353 18.9999995,4.70545254 C18.5049995,5.4341459 17.8783746,6.07424432 17.1572496,6.58698752 C17.1639996,6.7431361 17.1684996,6.89928468 17.1684996,7.05764813 Z" id="path-1"></path>
    </defs>
    <g id="•-Icons" stroke="none" stroke-width="1" fill="none" fill-rule="evenodd">
        <g id="icon/social/twitter">
            <mask id="mask-2" fill="white">
                <use xlink:href="#path-1"></use>
            </mask>
            <use id="Mask" fill="#FFC107" xlink:href="#path-1"></use>
            <g id="Group" mask="url(#mask-2)" fill="#455A64">
                <g id="Color/Blue3">
                    <rect id="Rectangle" x="0" y="0" width="20" height="20"></rect>
                </g>
            </g>
        </g>
    </g>
</svg>